<svg width="68" height="39" viewBox="0 0 68 39" fill="none" xmlns="http://www.w3.org/2000/svg">
<ellipse cx="34" cy="19.1377" rx="34" ry="19" fill="url(#paint0_linear_3450_79054)"/>
<g clip-path="url(#clip0_3450_79054)">
<path d="M47.9014 12.293V14.508H51.9212C52.3216 14.1334 52.8501 13.9053 53.4427 13.9053C54.0353 13.9053 54.5638 14.1334 54.9641 14.508H59V12.293H47.9014Z" fill="white"/>
<path d="M53.4427 18.4817C52.9782 18.4817 52.5618 18.3351 52.2095 18.1071V26.625L54.7079 26.6413V18.0908C54.3395 18.3351 53.9071 18.4817 53.4427 18.4817Z" fill="white"/>
<path d="M53.4428 14.7197C52.642 14.7197 51.9854 15.3875 51.9854 16.2018C51.9854 17.0161 52.642 17.6839 53.4428 17.6839C54.2435 17.6839 54.9002 17.0161 54.9002 16.2018C54.8841 15.3712 54.2435 14.7197 53.4428 14.7197Z" fill="#16BECF"/>
<path d="M30.4765 21.1532C30.3964 21.4138 30.3164 21.6744 30.1882 21.9024C29.8519 22.5376 29.4355 23.0424 28.907 23.4007C28.3785 23.7753 27.8019 24.0359 27.1453 24.1825C26.5047 24.3291 25.8481 24.4105 25.2074 24.4105H23.1254V14.5408H25.2074C25.8481 14.5408 26.5047 14.606 27.1453 14.7362C27.7859 14.8665 28.3785 15.1271 28.907 15.4854C29.4355 15.8437 29.8519 16.3486 30.1882 17.0001C30.2683 17.163 30.3324 17.3258 30.3964 17.505C30.8288 17.0978 31.3894 16.8535 32.014 16.8535C32.3823 16.8535 32.7187 16.9349 33.023 17.0815C32.9269 16.7395 32.7987 16.4138 32.6546 16.1206C32.1902 15.2086 31.5976 14.4757 30.8449 13.9219C30.1082 13.3682 29.2754 12.961 28.3465 12.7167C27.4176 12.4724 26.5047 12.3584 25.5918 12.3584H20.6431V26.6255H25.6238C26.5367 26.6255 27.4496 26.4952 28.3785 26.2183C29.3074 25.9415 30.1402 25.518 30.8769 24.9317C31.6136 24.3617 32.2222 23.6125 32.6866 22.7167C32.8788 22.3258 33.039 21.9024 33.1511 21.4463C32.8148 21.6255 32.4464 21.7232 32.046 21.7232C31.4374 21.7232 30.8929 21.5115 30.4765 21.1532Z" fill="white"/>
<path d="M30.5889 19.2965C30.5889 20.1109 31.2455 20.7786 32.0463 20.7786C32.847 20.7786 33.5037 20.1109 33.5037 19.2965C33.5037 18.4822 32.847 17.8145 32.0463 17.8145C31.2295 17.8145 30.5889 18.4822 30.5889 19.2965Z" fill="#16BECF"/>
<path d="M41.431 18.0264C40.6303 18.0264 39.9736 18.6941 39.9736 19.5085C39.9736 20.3228 40.6303 20.9905 41.431 20.9905C42.2318 20.9905 42.8884 20.3228 42.8884 19.5085C42.8724 18.6778 42.2318 18.0264 41.431 18.0264Z" fill="#16BECF"/>
<path d="M41.431 12C37.3631 12 34.064 15.355 34.064 19.4919C34.064 23.6287 37.3631 26.9837 41.431 26.9837C45.4989 26.9837 48.7981 23.6287 48.7981 19.4919C48.7981 15.355 45.4989 12 41.431 12ZM41.431 24.4104C38.7565 24.4104 36.5944 22.2117 36.5944 19.4919C36.5944 16.772 38.7565 14.5733 41.431 14.5733C44.1056 14.5733 46.2677 16.772 46.2677 19.4919C46.2677 22.2117 44.0896 24.4104 41.431 24.4104Z" fill="white"/>
<path d="M15.1179 22.5053C14.8136 22.603 14.4773 22.6519 14.0929 22.6519C13.7566 22.6519 13.4202 22.5867 13.0999 22.4727C12.7796 22.3587 12.4914 22.1795 12.2511 21.9841C11.9949 21.7724 11.8027 21.5281 11.6425 21.2349C11.4984 20.9418 11.4023 20.6323 11.3703 20.274H18.6092C18.5772 18.9222 18.5131 17.9939 18.2889 17.3424C18.0647 16.6909 17.7444 16.1535 17.328 15.7137C16.9116 15.274 16.4311 14.9483 15.8706 14.7203C15.3101 14.4923 14.7015 14.3945 14.0448 14.3945C13.3242 14.3945 12.6675 14.5248 12.0589 14.7691C11.4504 15.0134 10.9058 15.3717 10.4574 15.8115C10.009 16.2675 9.65663 16.805 9.40038 17.4401C9.12812 18.0753 9 18.7756 9 19.5574C9 20.3554 9.12812 21.0558 9.38437 21.6909C9.64062 22.3098 9.99295 22.8473 10.4574 23.2708C10.9058 23.6942 11.4504 24.0362 12.075 24.2642C12.6996 24.4923 13.3722 24.6225 14.1089 24.6225C14.8937 24.6225 15.5983 24.4923 16.2229 24.2317C15.5983 23.9059 15.1499 23.2545 15.1179 22.5053ZM12.2031 16.8538C12.6996 16.4141 13.3081 16.2023 14.0128 16.2023C14.3972 16.2023 14.7335 16.2675 15.0218 16.3978C15.3101 16.5281 15.5343 16.6909 15.7265 16.919C15.9186 17.1307 16.0468 17.375 16.1268 17.6681C16.2069 17.945 16.255 18.2382 16.255 18.5476H11.3863C11.4343 17.8473 11.7066 17.2773 12.2031 16.8538Z" fill="white"/>
<path d="M17.12 21.1689C16.4474 21.1689 15.9028 21.7227 15.9028 22.4067C15.9028 23.0908 16.4474 23.6445 17.12 23.6445C17.7926 23.6445 18.3372 23.0908 18.3372 22.4067C18.3372 21.7227 17.7926 21.1689 17.12 21.1689Z" fill="#16BECF"/>
</g>
<defs>
<linearGradient id="paint0_linear_3450_79054" x1="56" y1="4.00024" x2="8.5" y2="31.5002" gradientUnits="userSpaceOnUse">
<stop stop-color="#449623"/>
<stop offset="1" stop-color="#195A00"/>
</linearGradient>
<clipPath id="clip0_3450_79054">
<rect width="50" height="15" fill="white" transform="translate(9 12)"/>
</clipPath>
</defs>
</svg>
